# xmcd
#
# Track frame offsets:
#	150
#	12750
#	24252
#	35097
#	49135
#	62232
#	72907
#	85495
#	96985
#	107715
#	117507
#	128335
#	138050
#	148765
#	160030
#	173727
#
# Disc length: 2476 seconds
#
# Revision: 1
# Processed by: cddbd v1.5.2PL0 Copyright (c) Steve Scherf et al.
# Submitted via: audiograbber 1.83.01
#
DISCID=d609aa10
DTITLE=Hank Snow - 16 Top Tracks - Hank Snow
DYEAR=1988
DGENRE=Country
TTITLE0=I've Been Everywhere
TTITLE1=When It's Springtime In Alaska
TTITLE2=It's A Little More Like Heaven
TTITLE3=Galway Bay
TTITLE4=I Love You Because
TTITLE5=(I'd Be) A Legend In My Time
TTITLE6=Return To Me
TTITLE7=Mansion On The Hill
TTITLE8=In The Misty Moonlight
TTITLE9=From A Jack To A King
TTITLE10=She Wears My Ring
TTITLE11=Six Days On The Road
TTITLE12=Waiting For A Train
TTITLE13=Big Wheels
TTITLE14=The Last Ride
TTITLE15=Ghost Trains
EXTD=
EXTT0=
EXTT1=
EXTT2=
EXTT3=
EXTT4=
EXTT5=
EXTT6=
EXTT7=
EXTT8=
EXTT9=
EXTT10=
EXTT11=
EXTT12=
EXTT13=
EXTT14=
EXTT15=
PLAYORDER=
